<?xml version="1.0" encoding="utf-8"?>
<!-- Generator: Adobe Illustrator 19.1.0, SVG Export Plug-In . SVG Version: 6.00 Build 0)  -->
<svg version="1.1" id="YouTube_Logo" xmlns="http://www.w3.org/2000/svg" xmlns:xlink="http://www.w3.org/1999/xlink" x="0px"
	 y="0px" viewBox="0 0 773.3 481.1" style="enable-background:new 0 0 773.3 481.1;" xml:space="preserve">
<style type="text/css">
	.st0{fill:#FFFFFF;}
	.st1{fill:#FFFFFF;stroke:#FFFFFF;stroke-width:8;stroke-miterlimit:10;}
	.st2{fill:#FFFFFF;fill-opacity:0;stroke:#FFFFFF;stroke-width:8;stroke-miterlimit:10;}
</style>
<g id="You">
</g>
<g id="Tube">
	<g>
		<g>
			<path class="st0" d="M587.3,213.7c-4.1,0-8.8,2.2-13,6.3l0,83.8c4.2,4.2,8.9,6.3,13.1,6.3c7.2,0,10.5-5.3,10.5-19.1v-59.4
				C597.8,217.7,594.6,213.7,587.3,213.7z"/>
			<path class="st0" d="M690.4,230.3c0-12.8-3.3-16.6-11.6-16.6c-8.4,0-11.9,3.5-11.9,16.4v15.3l23.5,0V230.3z"/>
			<path class="st0" d="M747.2,159.5c0,0-4-28.3-16.4-40.8c-15.7-16.4-33.3-16.4-41.4-17.4C631.6,97.2,545,97.2,545,97.2h-0.2
				c0,0-86.6,0-144.4,4.2c-8.1,1-25.7,1-41.4,17.4c-12.4,12.5-16.4,40.8-16.4,40.8s-4.1,33.3-4.1,66.5v31.2
				c0,33.3,4.1,66.5,4.1,66.5s4,28.3,16.4,40.8c15.7,16.4,36.3,15.8,45.5,17.6c33,3.2,140.3,4.1,140.3,4.1s86.7-0.1,144.5-4.3
				c8.1-1,25.7-1,41.4-17.4c12.4-12.5,16.4-40.8,16.4-40.8s4.1-33.3,4.1-66.5V226C751.3,192.8,747.2,159.5,747.2,159.5z
				 M429.2,331.1h-27.6v-159h-29v-26.2l87.1,0v26.3h-30.4V331.1z M528.7,331.1h-26.3v-15.2c-10,11.4-18.4,17.2-27.6,17.2
				c-8.1,0-13.7-3.8-16.5-10.7c-1.7-4.2-2.9-10.7-2.9-20.3V192.8h26.3v102.3c0,5.9,0,8.3,0,9.7c0.6,3.9,2.3,5.3,5.6,5.3
				c5,0,9.6-4.4,15.1-12.2V192.8h26.3V331.1z M624.1,289.6c0,12.8-1.1,21.8-2.8,27.6c-3.3,10.3-10.6,15.6-20.6,15.6
				c-8.9,0-18-5.4-26.4-15.7l0,13.9h-24.9V145.8h24.9l0,60.4c8.1-9.9,17.2-15.6,26.4-15.6c10,0,16.7,5.8,20,16.1
				c1.7,5.6,3.3,14.5,3.3,27.6V289.6z M679.1,310.1c6.2,0,9.8-3.4,11.2-10c0.2-1.4,0.2-7.3,0.2-17.4h26.3v3.9
				c0,8.1-0.7,13.8-0.9,16.3c-0.8,5.5-2.8,10.6-5.9,15c-6.9,10-17.2,15-30.3,15c-13.1,0-23.1-4.7-30.3-14.1
				c-5.3-6.9-8.7-17.2-8.7-31.9v-48.4c0-14.8,3.1-26.2,8.4-33.2c7.2-9.5,17.2-14.5,30-14.5c12.6,0,22.5,5,29.5,14.5
				c5.2,7,8.1,17.8,8.1,32.5l0,28.3h-49.8v24.8C666.8,303.7,670.5,310.1,679.1,310.1z"/>
		</g>
		<g id="Layer_1_1_">
			<path class="st1" d="M192.8,234.8c0,15.2-12.4,27.6-27.6,27.6s-27.6-12.4-27.6-27.6s12.4-27.6,27.6-27.6S192.8,219.6,192.8,234.8
				z"/>
			<path class="st2" d="M165.2,178.7c37.1,0,71.5,5.3,97.4,14.3c31.3,10.8,50.5,27.1,50.5,41.9c0,15.4-20.4,32.7-54,43.9
				c-25.4,8.4-58.8,12.8-94,12.8c-36.1,0-70.2-4.1-95.9-12.9c-32.5-11.1-52-28.7-52-43.8c0-14.7,18.4-30.8,49.2-41.6
				C92.5,184.1,127.8,178.7,165.2,178.7z"/>
			<path class="st2" d="M116.3,206.9c18.5-32.1,40.3-59.3,61-77.3c24.9-21.7,48.7-30.2,61.5-22.8c13.3,7.7,18.2,34,11,68.6
				c-5.4,26.2-18.3,57.3-35.9,87.8c-18,31.2-38.6,58.8-59.1,76.6c-25.8,22.6-50.8,30.8-63.9,23.2c-12.7-7.3-17.6-31.3-11.5-63.4
				C84.7,272.6,97.6,239.3,116.3,206.9z"/>
			<path class="st2" d="M116.4,263.3c-18.6-32.1-31.2-64.5-36.5-91.5c-6.4-32.5-1.9-57.3,10.9-64.7c13.3-7.7,38.5,1.2,65,24.7
				c20,17.8,40.5,44.5,58.2,74.9c18.1,31.2,31.6,62.8,36.9,89.4c6.7,33.7,1.3,59.4-11.8,67c-12.7,7.3-35.9-0.4-60.6-21.7
				C157.5,323.5,135.1,295.7,116.4,263.3z"/>
		</g>
	</g>
</g>
</svg>
